<?xml version="1.0" encoding="UTF-8"?>
<svg id="Layer_1" data-name="Layer 1" xmlns="http://www.w3.org/2000/svg" xmlns:xlink="http://www.w3.org/1999/xlink" viewBox="0 0 2428.2 563.49">
  <defs>
    <style>
      .cls-1 {
        fill: url(#linear-gradient-8);
      }

      .cls-2 {
        fill: url(#linear-gradient-7);
      }

      .cls-3 {
        fill: url(#linear-gradient-5);
      }

      .cls-4 {
        fill: url(#linear-gradient-6);
      }

      .cls-5 {
        fill: url(#linear-gradient-9);
      }

      .cls-6 {
        fill: url(#linear-gradient-4);
      }

      .cls-7 {
        fill: url(#linear-gradient-3);
      }

      .cls-8 {
        fill: url(#linear-gradient-2);
      }

      .cls-9 {
        letter-spacing: 0em;
      }

      .cls-10 {
        letter-spacing: 0em;
      }

      .cls-11 {
        fill: url(#linear-gradient);
      }

      .cls-12 {
        letter-spacing: .14em;
      }

      .cls-13 {
        letter-spacing: -.32em;
      }

      .cls-14 {
        font-family: Outfit-SemiBold, Outfit;
        font-size: 249.44px;
        font-weight: 600;
      }

      .cls-15 {
        letter-spacing: -.01em;
      }

      .cls-16 {
        letter-spacing: -.03em;
      }

      .cls-17 {
        letter-spacing: -.01em;
      }

      .cls-18 {
        letter-spacing: -.01em;
      }
    </style>
    <linearGradient id="linear-gradient" x1="711.42" y1="290.17" x2="2288.13" y2="290.17" gradientUnits="userSpaceOnUse">
      <stop offset=".1" stop-color="#275ada"/>
      <stop offset=".2" stop-color="#2150c4"/>
      <stop offset=".34" stop-color="#1b43a9"/>
      <stop offset=".49" stop-color="#163b96"/>
      <stop offset=".64" stop-color="#13358a"/>
      <stop offset=".79" stop-color="#133487"/>
    </linearGradient>
    <linearGradient id="linear-gradient-2" x1="248.98" y1="256.68" x2="478.93" y2="272.22" gradientUnits="userSpaceOnUse">
      <stop offset=".15" stop-color="#275ada"/>
      <stop offset=".26" stop-color="#2150c4"/>
      <stop offset=".44" stop-color="#1b43a9"/>
      <stop offset=".62" stop-color="#163b96"/>
      <stop offset=".81" stop-color="#13358a"/>
      <stop offset="1" stop-color="#133487"/>
    </linearGradient>
    <linearGradient id="linear-gradient-3" x1="250.25" y1="26.19" x2="401.61" y2="26.19" gradientTransform="translate(142.39 263.55) rotate(-6) skewX(-.06)" gradientUnits="userSpaceOnUse">
      <stop offset="0" stop-color="#1595ff"/>
      <stop offset=".69" stop-color="#a0cfff"/>
      <stop offset="1" stop-color="#d9e8ff"/>
    </linearGradient>
    <linearGradient id="linear-gradient-4" x1="176.99" y1="300.45" x2="610.24" y2="300.45" gradientUnits="userSpaceOnUse">
      <stop offset="0" stop-color="#275ada"/>
      <stop offset=".57" stop-color="#1b43a8"/>
      <stop offset="1" stop-color="#133487"/>
    </linearGradient>
    <linearGradient id="linear-gradient-5" x1="711.3" y1="26.92" x2="806.1" y2="26.92" gradientTransform="translate(-362.55 -101.44) rotate(35.69) scale(1.23 1.17) skewX(-17.7)" xlink:href="#linear-gradient-4"/>
    <linearGradient id="linear-gradient-6" x1="1031.86" y1="318.27" x2="1068.41" y2="318.27" gradientTransform="translate(-425.15 -848.81) rotate(42.64) scale(1.36) skewX(-4.7)" xlink:href="#linear-gradient-4"/>
    <linearGradient id="linear-gradient-7" x1="206.45" y1="237.06" x2="320.4" y2="237.06" gradientTransform="translate(-35.6 160.11) rotate(-3)" xlink:href="#linear-gradient-4"/>
    <linearGradient id="linear-gradient-8" x1="317.5" y1="217.05" x2="390.44" y2="217.05" gradientTransform="translate(-35.6 160.11) rotate(-3)" xlink:href="#linear-gradient-4"/>
    <linearGradient id="linear-gradient-9" x1="272.1" y1="317.72" x2="326.52" y2="317.72" gradientTransform="translate(-35.6 160.11) rotate(-3)" xlink:href="#linear-gradient-4"/>
  </defs>
  <g>
    <text class="cls-14" transform="translate(693.46 379.1)"><tspan class="cls-18" x="0" y="0">L</tspan><tspan class="cls-17" x="135.7" y="0">e</tspan><tspan class="cls-12" x="267.9" y="0">t</tspan><tspan class="cls-13" x="399.86" y="0"> </tspan><tspan class="cls-18" x="368.67" y="0">t</tspan><tspan x="462.71" y="0">er</tspan><tspan class="cls-18" x="705.91" y="0">L</tspan><tspan class="cls-10" x="841.61" y="0">a</tspan><tspan class="cls-15" x="988.28" y="0">b</tspan><tspan class="cls-10" x="1131.46" y="0">.P</tspan><tspan class="cls-16" x="1358.7" y="0">r</tspan><tspan class="cls-9" x="1459.23" y="0">o</tspan></text>
    <g>
      <path class="cls-11" d="M711.42,379.1v-175.36h33.92v175.36h-33.92ZM736.36,379.1v-30.18h89.3v30.18h-89.3Z"/>
      <path class="cls-11" d="M901.24,381.59c-12.64,0-23.87-2.7-33.67-8.11-9.81-5.4-17.59-12.85-23.32-22.33-5.74-9.48-8.61-20.29-8.61-32.43s2.78-22.66,8.36-32.05c5.57-9.39,13.18-16.88,22.82-22.45,9.64-5.57,20.37-8.36,32.18-8.36s21.91,2.62,30.81,7.86c8.89,5.24,15.88,12.39,20.95,21.45,5.07,9.07,7.61,19.33,7.61,30.81,0,2.16-.12,4.37-.37,6.61-.25,2.25-.71,4.78-1.37,7.61l-101.27.25v-24.45l86.06-.25-13.22,10.23c-.33-7.15-1.62-13.13-3.87-17.96-2.25-4.82-5.49-8.52-9.73-11.1-4.24-2.58-9.44-3.87-15.59-3.87-6.49,0-12.14,1.46-16.96,4.37-4.83,2.91-8.52,6.98-11.1,12.22-2.58,5.24-3.87,11.44-3.87,18.58s1.37,13.68,4.12,19.08c2.74,5.41,6.69,9.56,11.85,12.47,5.15,2.91,11.14,4.37,17.96,4.37,6.15,0,11.72-1.04,16.71-3.12,4.99-2.08,9.31-5.2,12.97-9.35l19.21,19.21c-5.82,6.82-12.93,11.97-21.33,15.47-8.4,3.49-17.5,5.24-27.31,5.24Z"/>
      <path class="cls-11" d="M965.35,287.3v-28.69h89.05v28.69h-89.05ZM993.54,379.1v-170.62h32.68v170.62h-32.68Z"/>
      <path class="cls-11" d="M1066.12,287.3v-28.69h89.05v28.69h-89.05ZM1094.31,379.1v-170.62h32.68v170.62h-32.68Z"/>
      <path class="cls-11" d="M1228.26,381.59c-12.64,0-23.86-2.7-33.67-8.11-9.81-5.4-17.59-12.85-23.32-22.33-5.74-9.48-8.61-20.29-8.61-32.43s2.78-22.66,8.36-32.05c5.57-9.39,13.18-16.88,22.82-22.45,9.64-5.57,20.37-8.36,32.18-8.36s21.91,2.62,30.81,7.86c8.89,5.24,15.88,12.39,20.95,21.45,5.07,9.07,7.61,19.33,7.61,30.81,0,2.16-.12,4.37-.37,6.61s-.71,4.78-1.37,7.61l-101.27.25v-24.45l86.06-.25-13.22,10.23c-.34-7.15-1.62-13.13-3.87-17.96-2.24-4.82-5.49-8.52-9.73-11.1-4.24-2.58-9.44-3.87-15.59-3.87-6.49,0-12.14,1.46-16.96,4.37-4.83,2.91-8.52,6.98-11.1,12.22-2.58,5.24-3.87,11.44-3.87,18.58s1.37,13.68,4.12,19.08c2.74,5.41,6.69,9.56,11.85,12.47,5.15,2.91,11.14,4.37,17.96,4.37,6.15,0,11.72-1.04,16.71-3.12,4.99-2.08,9.31-5.2,12.97-9.35l19.21,19.21c-5.82,6.82-12.93,11.97-21.33,15.47-8.4,3.49-17.5,5.24-27.31,5.24Z"/>
      <path class="cls-11" d="M1305.58,379.1v-120.48h32.68v120.48h-32.68ZM1338.26,312.5l-12.72-8.48c1.5-14.8,5.82-26.48,12.97-35.05,7.15-8.56,17.46-12.85,30.93-12.85,5.82,0,11.06.96,15.71,2.87,4.65,1.91,8.89,5.03,12.72,9.35l-20.45,23.45c-1.83-2-4.03-3.49-6.61-4.49-2.58-1-5.53-1.5-8.85-1.5-6.98,0-12.68,2.21-17.09,6.61-4.41,4.41-6.61,11.1-6.61,20.08Z"/>
      <path class="cls-11" d="M1417.33,379.1v-175.36h33.92v175.36h-33.92ZM1442.27,379.1v-30.18h89.3v30.18h-89.3Z"/>
      <path class="cls-11" d="M1599.92,381.59c-10.98,0-20.87-2.74-29.68-8.23-8.82-5.49-15.71-12.97-20.7-22.45-4.99-9.48-7.48-20.12-7.48-31.93s2.49-22.7,7.48-32.18c4.99-9.48,11.89-16.96,20.7-22.45,8.81-5.49,18.71-8.23,29.68-8.23,8.64,0,16.38,1.75,23.2,5.24,6.82,3.49,12.26,8.36,16.34,14.59,4.07,6.24,6.28,13.26,6.61,21.08v43.4c-.33,7.98-2.54,15.05-6.61,21.2-4.08,6.15-9.52,11.02-16.34,14.59-6.82,3.57-14.55,5.36-23.2,5.36ZM1605.91,351.41c9.14,0,16.54-3.03,22.2-9.1,5.65-6.07,8.48-13.93,8.48-23.57,0-6.32-1.29-11.93-3.87-16.84-2.58-4.9-6.15-8.73-10.73-11.47-4.58-2.74-9.94-4.12-16.09-4.12s-11.27,1.37-15.84,4.12c-4.58,2.74-8.15,6.57-10.73,11.47-2.58,4.91-3.87,10.52-3.87,16.84s1.29,12.18,3.87,17.09c2.58,4.91,6.15,8.73,10.73,11.47,4.57,2.74,9.85,4.12,15.84,4.12ZM1634.84,379.1v-32.43l5.24-29.43-5.24-28.94v-29.68h32.43v120.48h-32.43Z"/>
      <path class="cls-11" d="M1696.21,379.1v-180.35h32.68v89.55l-5.49,28.94,5.24,29.43v32.43h-32.43ZM1763.06,381.59c-8.65,0-16.46-1.83-23.45-5.49-6.98-3.66-12.56-8.64-16.71-14.97-4.16-6.32-6.4-13.38-6.74-21.2v-42.9c.33-7.81,2.62-14.84,6.86-21.08,4.24-6.24,9.85-11.1,16.84-14.59s14.72-5.24,23.2-5.24c11.14,0,21.12,2.74,29.93,8.23,8.81,5.49,15.75,12.97,20.83,22.45,5.07,9.48,7.61,20.21,7.61,32.18s-2.54,22.45-7.61,31.93c-5.07,9.48-12.02,16.96-20.83,22.45-8.82,5.49-18.79,8.23-29.93,8.23ZM1757.57,351.41c5.99,0,11.26-1.37,15.84-4.12,4.57-2.74,8.15-6.57,10.73-11.47,2.58-4.9,3.87-10.6,3.87-17.09s-1.29-11.93-3.87-16.84c-2.58-4.9-6.2-8.73-10.85-11.47-4.66-2.74-9.98-4.12-15.96-4.12s-11.27,1.37-15.84,4.12c-4.58,2.74-8.15,6.57-10.73,11.47-2.58,4.91-3.87,10.52-3.87,16.84s1.29,12.18,3.87,17.09c2.58,4.91,6.19,8.73,10.85,11.47,4.65,2.74,9.98,4.12,15.96,4.12Z"/>
      <path class="cls-11" d="M1861.84,381.59c-5.99,0-10.89-2-14.72-5.99-3.83-3.99-5.74-8.89-5.74-14.72s1.91-10.73,5.74-14.72c3.82-3.99,8.73-5.99,14.72-5.99s10.64,2,14.47,5.99c3.82,3.99,5.74,8.9,5.74,14.72s-1.91,10.73-5.74,14.72c-3.83,3.99-8.65,5.99-14.47,5.99Z"/>
      <path class="cls-11" d="M1916.46,379.1v-175.36h33.92v175.36h-33.92ZM1941.41,313.99v-27.69h40.66c5.32,0,10.14-1.08,14.47-3.24,4.32-2.16,7.73-5.28,10.23-9.35,2.49-4.07,3.74-9.02,3.74-14.84s-1.25-10.56-3.74-14.72c-2.5-4.16-5.91-7.32-10.23-9.48-4.33-2.16-9.15-3.24-14.47-3.24h-40.66v-27.69h44.15c11.14,0,21.16,2.25,30.06,6.73,8.89,4.49,15.92,10.85,21.08,19.08,5.15,8.23,7.73,18,7.73,29.31s-2.58,21.08-7.73,29.31c-5.16,8.23-12.18,14.59-21.08,19.08-8.9,4.49-18.92,6.74-30.06,6.74h-44.15Z"/>
      <path class="cls-11" d="M2066.63,379.1v-120.48h32.68v120.48h-32.68ZM2099.3,312.5l-12.72-8.48c1.5-14.8,5.82-26.48,12.97-35.05,7.15-8.56,17.46-12.85,30.93-12.85,5.82,0,11.06.96,15.71,2.87,4.65,1.91,8.89,5.03,12.72,9.35l-20.45,23.45c-1.83-2-4.03-3.49-6.61-4.49-2.58-1-5.53-1.5-8.85-1.5-6.98,0-12.68,2.21-17.09,6.61s-6.61,11.1-6.61,20.08Z"/>
      <path class="cls-11" d="M2223.78,381.59c-12.14,0-23.07-2.78-32.8-8.36-9.73-5.57-17.46-13.13-23.2-22.7-5.74-9.56-8.61-20.24-8.61-32.05s2.83-22.41,8.48-31.8c5.65-9.39,13.38-16.88,23.2-22.45,9.81-5.57,20.7-8.36,32.68-8.36s23.32,2.79,33.05,8.36c9.73,5.57,17.42,13.06,23.07,22.45,5.65,9.4,8.48,20,8.48,31.8s-2.83,22.49-8.48,32.05c-5.66,9.56-13.34,17.13-23.07,22.7-9.73,5.57-20.67,8.36-32.8,8.36ZM2223.53,351.16c6.15,0,11.6-1.37,16.34-4.12s8.4-6.57,10.98-11.47c2.58-4.9,3.87-10.52,3.87-16.84s-1.33-11.89-3.99-16.71c-2.66-4.82-6.32-8.61-10.98-11.35-4.66-2.74-10.06-4.12-16.21-4.12s-11.31,1.37-15.96,4.12c-4.66,2.74-8.32,6.53-10.98,11.35-2.66,4.83-3.99,10.39-3.99,16.71s1.33,11.93,3.99,16.84c2.66,4.91,6.32,8.73,10.98,11.47,4.65,2.74,9.98,4.12,15.96,4.12Z"/>
    </g>
  </g>
  <g>
    <g>
      <path class="cls-8" d="M479.09,266.58l-43.4,36.63c-3.57,2.74-7.64,4.57-11.55,6.57-8.74,4.48-22.35,6.79-31.75,6.73-11.53-.07-23.08-3.38-33.4-9.98l-102.07-65.25c-8.11-5.19-10.71-16.35-5.8-24.93,3.23-5.64,8.9-8.77,14.72-8.77,3.02,0,6.08.84,8.86,2.62l102.07,65.25c10.68,6.83,24.87,6.33,34.98-1.43l44.21-29.95,23.14,22.5Z"/>
      <path class="cls-7" d="M423.9,265.82c11.82-8.13,75.09-51.66,88.15-60.88.33-.24.69-.45,1.06-.62,20.77-9.41,38.45,16.61,20.07,31.36-15.03,12.06-83.8,58.95-101.65,70.4-.44.28-.92.62-1.44.84l-.58.25c-.82.36-1.71.55-2.61.58l-22.82.67c-1.41.04-2.82-.3-3.99-1.07-2.12-1.41-2.94-3.67-2.16-6.59,1.44-5.34,5.71-16.15,8.16-21.21.77-1.59,1.62-2.4,2.97-3.52,4.24-3.51,10.18-7.02,14.84-10.22Z"/>
    </g>
    <path class="cls-6" d="M610.23,198.2c-2.32-37.33-31.05-67.86-66.88-71.02l-.37-.03-298.75-.02-.4.03c-17.06,1.49-33.22,9.26-45.5,21.89-12.2,12.56-19.78,29.1-21.32,46.54l-.04.41v121.6c0,11.53,9.08,21.24,20.61,21.5s21.56-9.3,21.56-21.08v-118.55c0-.65.03-1.2.09-1.68.92-6.77,4.01-13.24,8.73-18.21,4.58-4.83,10.55-8.08,16.81-9.15.57-.1,1.2-.14,1.98-.14l292.72-.14c.71,0,1.3.03,1.82.11,14.65,2.2,25.65,14.6,26.75,30.16.02.34.03.68.03,1.02v197.92c0,.45-.01.83-.04,1.16-1.32,15.87-12.67,28.28-27.6,30.18-.45.06-.97.09-1.59.09h-93.7c-11.87,0-21.5,9.63-21.5,21.5h0c0,11.87,9.63,21.5,21.5,21.5h96.34c1.49,0,2.99-.16,4.44-.48l11.65-2.51.33-.1c12.53-3.79,23.9-11.11,32.87-21.17,8.91-9.99,15.05-22.22,17.73-35.34l.05-.23,1.43-9.57c.15-1.03.23-2.07.23-3.12v-202.76l-.02-.29Z"/>
    <g>
      <g>
        <path class="cls-3" d="M350.59,409.4h38.95v98.39c0,10.75-8.73,19.48-19.48,19.48h0c-10.75,0-19.48-8.73-19.48-19.48v-98.39h0Z" transform="translate(-225.89 434.96) rotate(-48.48)"/>
        <rect class="cls-4" x="288.07" y="397.11" width="38.95" height="31.52" transform="translate(-205.45 369.45) rotate(-48.48)"/>
      </g>
      <path class="cls-2" d="M296.76,380.1h0c-31.43,1.64-58.23-22.5-59.88-53.92h0c1.64,31.43-22.5,58.23-53.92,59.88h0c31.43-1.64,58.23,22.5,59.88,53.92h0c-1.64-31.43,22.5-58.23,53.92-59.88Z"/>
      <path class="cls-1" d="M365.65,356.46h0c-20.11,1.05-37.27-14.4-38.33-34.51h0c1.05,20.11-14.4,37.27-34.51,38.33h0c20.11-1.05,37.27,14.4,38.33,34.51h0c-1.05-20.11,14.4-37.27,34.51-38.33Z"/>
      <path class="cls-5" d="M307.08,460.34h0c-15.01.79-27.81-10.74-28.59-25.75h0c.79,15.01-10.74,27.81-25.75,28.59h0c15.01-.79,27.81,10.74,28.59,25.75h0c-.79-15.01,10.74-27.81,25.75-28.59Z"/>
    </g>
  </g>
</svg>