<?xml version="1.0" encoding="UTF-8"?>
<svg id="Layer_1" data-name="Layer 1" xmlns="http://www.w3.org/2000/svg" xmlns:xlink="http://www.w3.org/1999/xlink" viewBox="0 0 1200 1200">
  <defs>
    <style>
      .cls-1 {
        fill: url(#linear-gradient-4);
      }

      .cls-2 {
        fill: url(#linear-gradient-3);
      }

      .cls-3 {
        fill: url(#linear-gradient-2);
      }

      .cls-4 {
        fill: url(#linear-gradient);
      }
    </style>
    <linearGradient id="linear-gradient" x1="107.75" y1="132.34" x2="1868.02" y2="1819.17" gradientUnits="userSpaceOnUse">
      <stop offset=".1" stop-color="#275ada"/>
      <stop offset=".2" stop-color="#2150c4"/>
      <stop offset=".34" stop-color="#1b43a9"/>
      <stop offset=".49" stop-color="#163b96"/>
      <stop offset=".64" stop-color="#13358a"/>
      <stop offset=".79" stop-color="#133487"/>
    </linearGradient>
    <linearGradient id="linear-gradient-2" x1="148.16" y1="905" x2="1061.02" y2="905" gradientUnits="userSpaceOnUse">
      <stop offset="0" stop-color="#fff"/>
      <stop offset="1" stop-color="#b3d2ff"/>
    </linearGradient>
    <linearGradient id="linear-gradient-3" x1="255.35" y1="472.92" x2="951.91" y2="519.99" xlink:href="#linear-gradient-2"/>
    <linearGradient id="linear-gradient-4" x1="426.42" y1="646.21" x2="665.6" y2="646.21" gradientTransform="translate(110.97 -183.8) rotate(-6) skewX(-.06)" gradientUnits="userSpaceOnUse">
      <stop offset="0" stop-color="#1d84ff"/>
      <stop offset=".68" stop-color="#a0c9ff"/>
      <stop offset="1" stop-color="#d9e8ff"/>
    </linearGradient>
  </defs>
  <rect class="cls-4" x="25.5" y="32.85" width="1151.54" height="1144.83" rx="208.46" ry="208.46"/>
  <g>
    <g>
      <path class="cls-3" d="M148.16,956.48v-101.53h19.64v101.53h-19.64ZM162.6,956.48v-17.47h51.7v17.47h-51.7Z"/>
      <path class="cls-3" d="M258.06,957.93c-7.32,0-13.82-1.56-19.5-4.69-5.68-3.13-10.18-7.44-13.5-12.93s-4.98-11.75-4.98-18.77,1.61-13.12,4.84-18.56c3.22-5.44,7.63-9.77,13.21-13,5.58-3.22,11.79-4.84,18.63-4.84s12.68,1.52,17.83,4.55c5.15,3.03,9.19,7.17,12.13,12.42,2.94,5.25,4.4,11.19,4.4,17.84,0,1.25-.07,2.53-.22,3.83-.14,1.3-.41,2.77-.79,4.41l-58.63.14v-14.15l49.82-.14-7.65,5.92c-.19-4.14-.94-7.6-2.24-10.4-1.3-2.79-3.18-4.93-5.63-6.43-2.46-1.49-5.46-2.24-9.03-2.24-3.75,0-7.03.84-9.82,2.53-2.79,1.69-4.94,4.04-6.43,7.08-1.49,3.03-2.24,6.62-2.24,10.76s.79,7.92,2.38,11.05c1.59,3.13,3.87,5.54,6.86,7.22,2.98,1.69,6.45,2.53,10.4,2.53,3.56,0,6.79-.6,9.68-1.81,2.89-1.2,5.39-3.01,7.51-5.42l11.12,11.12c-3.37,3.95-7.49,6.93-12.35,8.95-4.86,2.02-10.13,3.03-15.81,3.03Z"/>
      <path class="cls-3" d="M295.18,903.33v-16.61h51.56v16.61h-51.56ZM311.5,956.48v-98.78h18.92v98.78h-18.92Z"/>
      <path class="cls-3" d="M353.52,903.33v-16.61h51.56v16.61h-51.56ZM369.84,956.48v-98.78h18.92v98.78h-18.92Z"/>
      <path class="cls-3" d="M447.39,957.93c-7.32,0-13.82-1.56-19.5-4.69-5.68-3.13-10.18-7.44-13.5-12.93s-4.98-11.75-4.98-18.77,1.61-13.12,4.84-18.56c3.22-5.44,7.63-9.77,13.21-13,5.58-3.22,11.79-4.84,18.63-4.84s12.68,1.52,17.83,4.55c5.15,3.03,9.19,7.17,12.13,12.42,2.94,5.25,4.4,11.19,4.4,17.84,0,1.25-.07,2.53-.22,3.83-.14,1.3-.41,2.77-.79,4.41l-58.63.14v-14.15l49.82-.14-7.65,5.92c-.19-4.14-.94-7.6-2.24-10.4-1.3-2.79-3.18-4.93-5.63-6.43-2.46-1.49-5.46-2.24-9.03-2.24-3.75,0-7.03.84-9.82,2.53-2.79,1.69-4.94,4.04-6.43,7.08-1.49,3.03-2.24,6.62-2.24,10.76s.79,7.92,2.38,11.05c1.59,3.13,3.87,5.54,6.86,7.22,2.98,1.69,6.45,2.53,10.4,2.53,3.56,0,6.79-.6,9.68-1.81,2.89-1.2,5.39-3.01,7.51-5.42l11.12,11.12c-3.37,3.95-7.49,6.93-12.35,8.95-4.86,2.02-10.13,3.03-15.81,3.03Z"/>
      <path class="cls-3" d="M492.16,956.48v-69.75h18.92v69.75h-18.92ZM511.08,917.92l-7.37-4.91c.87-8.57,3.37-15.33,7.51-20.29,4.14-4.96,10.11-7.44,17.91-7.44,3.37,0,6.4.55,9.1,1.66,2.69,1.11,5.15,2.91,7.37,5.42l-11.84,13.58c-1.06-1.16-2.33-2.02-3.83-2.6-1.49-.58-3.2-.87-5.13-.87-4.04,0-7.34,1.28-9.89,3.83s-3.83,6.43-3.83,11.63Z"/>
      <path class="cls-3" d="M556.86,956.48v-101.53h19.64v101.53h-19.64ZM571.3,956.48v-17.47h51.7v17.47h-51.7Z"/>
      <path class="cls-3" d="M662.57,957.93c-6.35,0-12.08-1.59-17.19-4.77-5.1-3.18-9.1-7.51-11.99-13-2.89-5.49-4.33-11.65-4.33-18.49s1.44-13.14,4.33-18.63c2.89-5.49,6.88-9.82,11.99-13,5.1-3.18,10.83-4.77,17.19-4.77,5,0,9.48,1.01,13.43,3.03,3.95,2.02,7.1,4.84,9.46,8.45,2.36,3.61,3.63,7.68,3.83,12.2v25.13c-.19,4.62-1.47,8.71-3.83,12.28-2.36,3.56-5.51,6.38-9.46,8.45-3.95,2.07-8.43,3.11-13.43,3.11ZM666.04,940.45c5.29,0,9.58-1.76,12.85-5.27,3.27-3.51,4.91-8.06,4.91-13.65,0-3.66-.75-6.91-2.24-9.75-1.49-2.84-3.56-5.05-6.21-6.64-2.65-1.59-5.75-2.38-9.32-2.38s-6.52.79-9.17,2.38c-2.65,1.59-4.72,3.8-6.21,6.64-1.49,2.84-2.24,6.09-2.24,9.75s.75,7.05,2.24,9.89c1.49,2.84,3.56,5.05,6.21,6.64,2.65,1.59,5.7,2.38,9.17,2.38ZM682.79,956.48v-18.77l3.03-17.04-3.03-16.75v-17.19h18.77v69.75h-18.77Z"/>
      <path class="cls-3" d="M718.32,956.48v-104.42h18.92v51.85l-3.18,16.75,3.03,17.04v18.77h-18.77ZM757.02,957.93c-5.01,0-9.53-1.06-13.58-3.18-4.04-2.12-7.27-5-9.68-8.67-2.41-3.66-3.71-7.75-3.9-12.28v-24.84c.19-4.52,1.52-8.59,3.97-12.2s5.7-6.43,9.75-8.45c4.04-2.02,8.52-3.03,13.43-3.03,6.45,0,12.23,1.59,17.33,4.77,5.1,3.18,9.12,7.51,12.06,13,2.94,5.49,4.4,11.7,4.4,18.63s-1.47,13-4.4,18.49c-2.94,5.49-6.96,9.82-12.06,13-5.1,3.18-10.88,4.77-17.33,4.77ZM753.85,940.45c3.47,0,6.52-.79,9.17-2.38,2.65-1.59,4.72-3.8,6.21-6.64,1.49-2.84,2.24-6.14,2.24-9.89s-.75-6.91-2.24-9.75c-1.49-2.84-3.59-5.05-6.28-6.64-2.7-1.59-5.78-2.38-9.24-2.38s-6.52.79-9.17,2.38c-2.65,1.59-4.72,3.8-6.21,6.64-1.49,2.84-2.24,6.09-2.24,9.75s.75,7.05,2.24,9.89c1.49,2.84,3.59,5.05,6.28,6.64,2.69,1.59,5.78,2.38,9.24,2.38Z"/>
      <path class="cls-3" d="M814.22,957.93c-3.47,0-6.31-1.16-8.52-3.47-2.22-2.31-3.32-5.15-3.32-8.52s1.11-6.21,3.32-8.52c2.21-2.31,5.05-3.47,8.52-3.47s6.16,1.16,8.38,3.47c2.21,2.31,3.32,5.15,3.32,8.52s-1.11,6.21-3.32,8.52c-2.22,2.31-5.01,3.47-8.38,3.47Z"/>
      <path class="cls-3" d="M845.84,956.48v-101.53h19.64v101.53h-19.64ZM860.28,918.79v-16.03h23.54c3.08,0,5.87-.62,8.38-1.88,2.5-1.25,4.48-3.05,5.92-5.42,1.44-2.36,2.17-5.22,2.17-8.59s-.72-6.11-2.17-8.52c-1.44-2.41-3.42-4.24-5.92-5.49-2.5-1.25-5.3-1.88-8.38-1.88h-23.54v-16.03h25.56c6.45,0,12.25,1.3,17.4,3.9,5.15,2.6,9.22,6.28,12.2,11.05,2.98,4.77,4.48,10.42,4.48,16.97s-1.49,12.2-4.48,16.97c-2.99,4.77-7.05,8.45-12.2,11.05-5.15,2.6-10.95,3.9-17.4,3.9h-25.56Z"/>
      <path class="cls-3" d="M932.78,956.48v-69.75h18.92v69.75h-18.92ZM951.7,917.92l-7.37-4.91c.87-8.57,3.37-15.33,7.51-20.29,4.14-4.96,10.11-7.44,17.91-7.44,3.37,0,6.4.55,9.1,1.66,2.69,1.11,5.15,2.91,7.37,5.42l-11.84,13.58c-1.06-1.16-2.33-2.02-3.83-2.6-1.49-.58-3.2-.87-5.13-.87-4.04,0-7.34,1.28-9.89,3.83s-3.83,6.43-3.83,11.63Z"/>
      <path class="cls-3" d="M1023.77,957.93c-7.03,0-13.36-1.61-18.99-4.84-5.63-3.22-10.11-7.6-13.43-13.14-3.32-5.54-4.98-11.72-4.98-18.56s1.64-12.97,4.91-18.41c3.27-5.44,7.75-9.77,13.43-13,5.68-3.22,11.99-4.84,18.92-4.84s13.5,1.61,19.14,4.84c5.63,3.23,10.08,7.56,13.36,13,3.27,5.44,4.91,11.58,4.91,18.41s-1.64,13.02-4.91,18.56c-3.27,5.54-7.73,9.92-13.36,13.14-5.63,3.23-11.96,4.84-18.99,4.84ZM1023.62,940.31c3.56,0,6.72-.79,9.46-2.38,2.74-1.59,4.86-3.8,6.35-6.64,1.49-2.84,2.24-6.09,2.24-9.75s-.77-6.88-2.31-9.68c-1.54-2.79-3.66-4.98-6.35-6.57-2.7-1.59-5.83-2.38-9.39-2.38s-6.55.79-9.24,2.38c-2.7,1.59-4.82,3.78-6.35,6.57-1.54,2.79-2.31,6.02-2.31,9.68s.77,6.91,2.31,9.75c1.54,2.84,3.66,5.05,6.35,6.64,2.69,1.59,5.78,2.38,9.24,2.38Z"/>
    </g>
    <g>
      <path class="cls-2" d="M736.33,419.27l-68.58,57.89c-5.64,4.32-12.07,7.22-18.26,10.39-13.81,7.07-35.31,10.72-50.18,10.63-18.22-.11-36.47-5.35-52.79-15.78l-161.3-103.1c-12.82-8.19-16.92-25.83-9.17-39.4,5.11-8.92,14.07-13.86,23.26-13.86,4.78,0,9.61,1.33,14,4.14l161.3,103.1c16.88,10.79,39.3,10,55.28-2.26l69.86-47.32,36.57,35.56ZM943.59,311.66v320.41c0,1.65-.13,3.31-.37,4.93l-2.26,15.13-.07.36c-4.24,20.73-13.93,40.06-28.02,55.84-14.19,15.9-32.15,27.46-51.95,33.46l-.52.16-18.41,3.97c-2.3.5-4.67.75-7.02.75h-152.25c-18.76,0-33.97-15.21-33.97-33.97h0c0-18.76,15.21-33.97,33.97-33.97h148.06c.98,0,1.79-.05,2.51-.14,23.59-3.01,41.52-22.62,43.62-47.69.05-.53.06-1.12.06-1.83v-312.75c0-.53,0-1.08-.05-1.61-1.74-24.58-19.12-44.19-42.27-47.66-.82-.13-1.75-.18-2.87-.18l-462.57.22c-1.24,0-2.24.07-3.13.23-9.89,1.68-19.33,6.82-26.57,14.46-7.45,7.85-12.35,18.07-13.8,28.77-.1.76-.14,1.62-.14,2.65v187.33c0,18.62-15.35,33.72-34.07,33.31-18.22-.4-32.57-15.75-32.57-33.97v-192.16s.06-.64.06-.64c2.44-27.56,14.4-53.7,33.69-73.54,19.4-19.96,44.93-32.23,71.9-34.58l.63-.05,472.09.04.58.05c56.61,5,102.02,53.24,105.68,112.23l.03.45ZM631.14,756.37l-116.41-103.06-40.8,46.09,116.41,103.06c12.73,11.27,32.18,10.08,43.44-2.64h0c11.27-12.73,10.08-32.18-2.64-43.44ZM467.01,610.89l-40.8,46.09,37.29,33.02,40.8-46.09-37.29-33.02ZM363,693.28h0c-2.6-49.66-44.96-87.81-94.62-85.21h0c49.66-2.6,87.81-44.96,85.21-94.62h0c2.6,49.66,44.96,87.81,94.62,85.21h0c-49.66,2.6-87.81,44.96-85.21,94.62ZM502.54,621.86h0c-1.66-31.79-28.78-56.21-60.56-54.54h0c31.79-1.66,56.21-28.78,54.54-60.57h0c1.66,31.79,28.78,56.21,60.56,54.54h0c-31.79,1.66-56.21,28.78-54.54,60.57ZM423.83,770.63h0c-1.24-23.71-21.47-41.93-45.19-40.69h0c23.71-1.24,41.93-21.47,40.69-45.19h0c1.24,23.71,21.47,41.93,45.19,40.69h0c-23.71,1.24-41.93,21.47-40.69,45.19Z"/>
      <path class="cls-1" d="M649.13,418.06c18.67-12.84,118.66-81.63,139.3-96.21.53-.37,1.08-.7,1.68-.97,32.83-14.87,60.77,26.25,31.72,49.55-23.76,19.06-132.43,93.15-160.64,111.24-.69.44-1.46.98-2.27,1.33l-.92.4c-1.3.56-2.7.87-4.13.92l-36.06,1.05c-2.22.07-4.46-.47-6.31-1.69-3.35-2.22-4.65-5.79-3.41-10.41,2.27-8.44,9.02-25.52,12.9-33.51,1.22-2.51,2.55-3.79,4.69-5.56,6.7-5.55,16.09-11.09,23.45-16.15Z"/>
    </g>
  </g>
</svg>